<?xml version="1.0" encoding="UTF-8" standalone="no"?>
<!-- Created with Inkscape (http://www.inkscape.org/) -->

<svg
   width="200mm"
   height="200mm"
   viewBox="0 0 200 200"
   version="1.1"
   id="svg5"
   inkscape:export-filename="anger.png"
   inkscape:export-xdpi="96"
   inkscape:export-ydpi="96"
   inkscape:version="1.2.1 (9c6d41e410, 2022-07-14)"
   sodipodi:docname="anger.svg"
   xmlns:inkscape="http://www.inkscape.org/namespaces/inkscape"
   xmlns:sodipodi="http://sodipodi.sourceforge.net/DTD/sodipodi-0.dtd"
   xmlns="http://www.w3.org/2000/svg"
   xmlns:svg="http://www.w3.org/2000/svg">
  <sodipodi:namedview
     id="namedview7"
     pagecolor="#505050"
     bordercolor="#eeeeee"
     borderopacity="1"
     inkscape:showpageshadow="0"
     inkscape:pageopacity="0"
     inkscape:pagecheckerboard="0"
     inkscape:deskcolor="#505050"
     inkscape:document-units="mm"
     showgrid="false"
     inkscape:zoom="0.74564394"
     inkscape:cx="400.32512"
     inkscape:cy="477.43967"
     inkscape:window-width="1920"
     inkscape:window-height="1017"
     inkscape:window-x="-8"
     inkscape:window-y="-8"
     inkscape:window-maximized="1"
     inkscape:current-layer="layer1" />
  <defs
     id="defs2">
    <inkscape:path-effect
       effect="skeletal"
       id="path-effect1005"
       is_visible="true"
       lpeversion="1"
       pattern="M 0,4.9921383 C 0,2.236478 2.236478,0 4.9921383,0 c 2.7556604,0 4.9921384,2.236478 4.9921384,4.9921383 0,2.7556604 -2.236478,4.9921384 -4.9921384,4.9921384 C 2.236478,9.9842767 0,7.7477987 0,4.9921383 Z"
       copytype="single_stretched"
       prop_scale="1"
       scale_y_rel="false"
       spacing="0"
       normal_offset="0"
       tang_offset="0"
       prop_units="false"
       vertical_pattern="false"
       hide_knot="false"
       fuse_tolerance="0" />
    <inkscape:path-effect
       effect="bspline"
       id="path-effect1003"
       is_visible="true"
       lpeversion="1"
       weight="33.333333"
       steps="2"
       helper_size="0"
       apply_no_weight="true"
       apply_with_weight="true"
       only_selected="false" />
    <inkscape:path-effect
       effect="bspline"
       id="path-effect1003-4"
       is_visible="true"
       lpeversion="1"
       weight="33.333333"
       steps="2"
       helper_size="0"
       apply_no_weight="true"
       apply_with_weight="true"
       only_selected="false" />
    <inkscape:path-effect
       effect="skeletal"
       id="path-effect1005-4"
       is_visible="true"
       lpeversion="1"
       pattern="M 0,4.9921383 C 0,2.236478 2.236478,0 4.9921383,0 c 2.7556604,0 4.9921384,2.236478 4.9921384,4.9921383 0,2.7556604 -2.236478,4.9921384 -4.9921384,4.9921384 C 2.236478,9.9842767 0,7.7477987 0,4.9921383 Z"
       copytype="single_stretched"
       prop_scale="1.5"
       scale_y_rel="false"
       spacing="0"
       normal_offset="0"
       tang_offset="0"
       prop_units="false"
       vertical_pattern="false"
       hide_knot="false"
       fuse_tolerance="0" />
    <inkscape:path-effect
       effect="bspline"
       id="path-effect1003-4-7"
       is_visible="true"
       lpeversion="1"
       weight="33.333333"
       steps="2"
       helper_size="0"
       apply_no_weight="true"
       apply_with_weight="true"
       only_selected="false" />
    <inkscape:path-effect
       effect="skeletal"
       id="path-effect1005-4-8"
       is_visible="true"
       lpeversion="1"
       pattern="M 0,4.9921383 C 0,2.236478 2.236478,0 4.9921383,0 c 2.7556604,0 4.9921384,2.236478 4.9921384,4.9921383 0,2.7556604 -2.236478,4.9921384 -4.9921384,4.9921384 C 2.236478,9.9842767 0,7.7477987 0,4.9921383 Z"
       copytype="single_stretched"
       prop_scale="1.5"
       scale_y_rel="false"
       spacing="0"
       normal_offset="0"
       tang_offset="0"
       prop_units="false"
       vertical_pattern="false"
       hide_knot="false"
       fuse_tolerance="0" />
    <inkscape:path-effect
       effect="bspline"
       id="path-effect1003-4-7-0"
       is_visible="true"
       lpeversion="1"
       weight="33.333333"
       steps="2"
       helper_size="0"
       apply_no_weight="true"
       apply_with_weight="true"
       only_selected="false" />
    <inkscape:path-effect
       effect="skeletal"
       id="path-effect1005-4-8-1"
       is_visible="true"
       lpeversion="1"
       pattern="M 0,4.9921383 C 0,2.236478 2.236478,0 4.9921383,0 c 2.7556604,0 4.9921384,2.236478 4.9921384,4.9921383 0,2.7556604 -2.236478,4.9921384 -4.9921384,4.9921384 C 2.236478,9.9842767 0,7.7477987 0,4.9921383 Z"
       copytype="single_stretched"
       prop_scale="1.5"
       scale_y_rel="false"
       spacing="0"
       normal_offset="0"
       tang_offset="0"
       prop_units="false"
       vertical_pattern="false"
       hide_knot="false"
       fuse_tolerance="0" />
    <inkscape:path-effect
       effect="bspline"
       id="path-effect1003-4-7-0-9"
       is_visible="true"
       lpeversion="1"
       weight="33.333333"
       steps="2"
       helper_size="0"
       apply_no_weight="true"
       apply_with_weight="true"
       only_selected="false" />
    <inkscape:path-effect
       effect="skeletal"
       id="path-effect1005-4-8-1-6"
       is_visible="true"
       lpeversion="1"
       pattern="M 0,4.9921383 C 0,2.236478 2.236478,0 4.9921383,0 c 2.7556604,0 4.9921384,2.236478 4.9921384,4.9921383 0,2.7556604 -2.236478,4.9921384 -4.9921384,4.9921384 C 2.236478,9.9842767 0,7.7477987 0,4.9921383 Z"
       copytype="single_stretched"
       prop_scale="1.5"
       scale_y_rel="false"
       spacing="0"
       normal_offset="0"
       tang_offset="0"
       prop_units="false"
       vertical_pattern="false"
       hide_knot="false"
       fuse_tolerance="0" />
  </defs>
  <g
     inkscape:label="Layer 1"
     inkscape:groupmode="layer"
     id="layer1">
    <path
       style="fill:#ffffff;stroke:none;stroke-width:1.35270004;stroke-linecap:square;stroke-linejoin:round;stroke-dasharray:none;stroke-opacity:1"
       d="M 4.2526867e-8,-6.1777549e-8 C 0.81109759,-1.178258 6.5020906,1.166583 15.712373,6.0354926 22.604203,9.6787796 39.938511,19.538107 53.03239,25.67832 c 13.455839,6.221111 30.263287,12.896817 46.967574,12.725806 0,0 4.66e-4,-5e-6 4.66e-4,-5e-6 16.70448,0.170777 33.51196,-6.504963 46.96782,-12.726126 C 160.06188,19.53787 177.39617,9.6785728 184.28782,6.0353888 193.49799,1.1665487 199.18891,-1.1782505 200,-8.159772e-7 200.81109,1.1782489 196.6799,5.7035752 188.67328,12.50508 c -7.50228,6.373081 -20.40269,16.344813 -35.64082,24.918639 -13.7825,7.845607 -32.25163,15.783587 -53.03187,15.956817 0,0 -5.8e-4,-4e-6 -5.8e-4,-4e-6 C 79.219827,53.20759 60.750669,45.26966 46.968191,37.424106 31.729858,28.850227 18.829274,18.878378 11.326887,12.505224 3.3201575,5.7036397 -0.81109753,1.1782579 4.2526867e-8,-6.1777549e-8 Z"
       id="path1001-6"
       inkscape:path-effect="#path-effect1003-4;#path-effect1005-4"
       inkscape:original-d="M 0,0 C 33.333597,22.946501 66.666929,45.892738 100,68.838709 133.33426,45.892278 166.66693,22.946501 200,0"
       class="UnoptimicedTransforms"
       transform="matrix(-0.8935959,0,0,-1.1760464,189.35959,199.76315)" />
    <path
       style="fill:#ffffff;stroke:none;stroke-width:0.37959566;stroke-linecap:square;stroke-linejoin:round;stroke-dasharray:none;stroke-opacity:1"
       d="M 4.2526867e-8,-6.1777549e-8 C 0.81109759,-1.178258 6.5020906,1.166583 15.712373,6.0354926 22.604203,9.6787796 39.938511,19.538107 53.03239,25.67832 c 13.455839,6.221111 30.263287,12.896817 46.967574,12.725806 0,0 4.66e-4,-5e-6 4.66e-4,-5e-6 16.70448,0.170777 33.51196,-6.504963 46.96782,-12.726126 C 160.06188,19.53787 177.39617,9.6785728 184.28782,6.0353888 193.49799,1.1665487 199.18891,-1.1782505 200,-8.159772e-7 200.81109,1.1782489 196.6799,5.7035752 188.67328,12.50508 c -7.50228,6.373081 -20.40269,16.344813 -35.64082,24.918639 -13.7825,7.845607 -32.25163,15.783587 -53.03187,15.956817 0,0 -5.8e-4,-4e-6 -5.8e-4,-4e-6 C 79.219827,53.20759 60.750669,45.26966 46.968191,37.424106 31.729858,28.850227 18.829274,18.878378 11.326887,12.505224 3.3201575,5.7036397 -0.81109753,1.1782579 4.2526867e-8,-6.1777549e-8 Z"
       id="path1001-6-8"
       inkscape:path-effect="#path-effect1003-4-7;#path-effect1005-4-8"
       inkscape:original-d="M 0,0 C 33.333597,22.946501 66.666929,45.892738 100,68.838709 133.33426,45.892278 166.66693,22.946501 200,0"
       class="UnoptimicedTransforms"
       transform="matrix(-0.8935959,0,0,1.1812602,189.35959,0.15820301)" />
    <path
       style="fill:#ffffff;stroke:none;stroke-width:1.35270004;stroke-linecap:square;stroke-linejoin:round;stroke-dasharray:none;stroke-opacity:1"
       d="M 4.2526867e-8,-6.1777549e-8 C 0.81109759,-1.178258 6.5020906,1.166583 15.712373,6.0354926 22.604203,9.6787796 39.938511,19.538107 53.03239,25.67832 c 13.455839,6.221111 30.263287,12.896817 46.967574,12.725806 0,0 4.66e-4,-5e-6 4.66e-4,-5e-6 16.70448,0.170777 33.51196,-6.504963 46.96782,-12.726126 C 160.06188,19.53787 177.39617,9.6785728 184.28782,6.0353888 193.49799,1.1665487 199.18891,-1.1782505 200,-8.159772e-7 200.81109,1.1782489 196.6799,5.7035752 188.67328,12.50508 c -7.50228,6.373081 -20.40269,16.344813 -35.64082,24.918639 -13.7825,7.845607 -32.25163,15.783587 -53.03187,15.956817 0,0 -5.8e-4,-4e-6 -5.8e-4,-4e-6 C 79.219827,53.20759 60.750669,45.26966 46.968191,37.424106 31.729858,28.850227 18.829274,18.878378 11.326887,12.505224 3.3201575,5.7036397 -0.81109753,1.1782579 4.2526867e-8,-6.1777549e-8 Z"
       id="path1001-6-8-7"
       inkscape:path-effect="#path-effect1003-4-7-0;#path-effect1005-4-8-1"
       inkscape:original-d="M 0,0 C 33.333597,22.946501 66.666929,45.892738 100,68.838709 133.33426,45.892278 166.66693,22.946501 200,0"
       class="UnoptimicedTransforms"
       transform="matrix(0,0.8935959,1.1760464,0,1.23826,10.64041)" />
    <path
       style="fill:#ffffff;stroke:none;stroke-width:1.35270004;stroke-linecap:square;stroke-linejoin:round;stroke-dasharray:none;stroke-opacity:1"
       d="M 4.2526867e-8,-6.1777549e-8 C 0.81109759,-1.178258 6.5020906,1.166583 15.712373,6.0354926 22.604203,9.6787796 39.938511,19.538107 53.03239,25.67832 c 13.455839,6.221111 30.263287,12.896817 46.967574,12.725806 0,0 4.66e-4,-5e-6 4.66e-4,-5e-6 16.70448,0.170777 33.51196,-6.504963 46.96782,-12.726126 C 160.06188,19.53787 177.39617,9.6785728 184.28782,6.0353888 193.49799,1.1665487 199.18891,-1.1782505 200,-8.159772e-7 200.81109,1.1782489 196.6799,5.7035752 188.67328,12.50508 c -7.50228,6.373081 -20.40269,16.344813 -35.64082,24.918639 -13.7825,7.845607 -32.25163,15.783587 -53.03187,15.956817 0,0 -5.8e-4,-4e-6 -5.8e-4,-4e-6 C 79.219827,53.20759 60.750669,45.26966 46.968191,37.424106 31.729858,28.850227 18.829274,18.878378 11.326887,12.505224 3.3201575,5.7036397 -0.81109753,1.1782579 4.2526867e-8,-6.1777549e-8 Z"
       id="path1001-6-8-7-1"
       inkscape:path-effect="#path-effect1003-4-7-0-9;#path-effect1005-4-8-1-6"
       inkscape:original-d="M 0,0 C 33.333597,22.946501 66.666929,45.892738 100,68.838709 133.33426,45.892278 166.66693,22.946501 200,0"
       class="UnoptimicedTransforms"
       transform="matrix(0,0.8935959,-1.1760464,0,199.57607,10.64041)" />
  </g>
</svg>
