<?xml version="1.0" encoding="UTF-8" standalone="no"?>
<!-- Created with Inkscape (http://www.inkscape.org/) -->

<svg
   width="500"
   height="500"
   viewBox="0 0 132.29167 132.29167"
   version="1.1"
   id="svg1202"
   inkscape:export-filename="scaleCoin.png"
   inkscape:export-xdpi="96"
   inkscape:export-ydpi="96"
   inkscape:version="1.2.1 (9c6d41e410, 2022-07-14)"
   sodipodi:docname="scaleCoin.svg"
   xmlns:inkscape="http://www.inkscape.org/namespaces/inkscape"
   xmlns:sodipodi="http://sodipodi.sourceforge.net/DTD/sodipodi-0.dtd"
   xmlns="http://www.w3.org/2000/svg"
   xmlns:svg="http://www.w3.org/2000/svg">
  <sodipodi:namedview
     id="namedview1204"
     pagecolor="#505050"
     bordercolor="#eeeeee"
     borderopacity="1"
     inkscape:showpageshadow="0"
     inkscape:pageopacity="0"
     inkscape:pagecheckerboard="0"
     inkscape:deskcolor="#505050"
     inkscape:document-units="mm"
     showgrid="false"
     inkscape:zoom="1.4912879"
     inkscape:cx="170.99314"
     inkscape:cy="256.82499"
     inkscape:window-width="1920"
     inkscape:window-height="1017"
     inkscape:window-x="-8"
     inkscape:window-y="-8"
     inkscape:window-maximized="1"
     inkscape:current-layer="layer3" />
  <defs
     id="defs1199">
    <inkscape:path-effect
       effect="bspline"
       id="path-effect4882"
       is_visible="true"
       lpeversion="1"
       weight="33.333333"
       steps="2"
       helper_size="0"
       apply_no_weight="true"
       apply_with_weight="true"
       only_selected="false" />
    <inkscape:path-effect
       effect="skeletal"
       id="path-effect1961"
       is_visible="true"
       lpeversion="1"
       pattern="M 0,4.9921385 C 0,2.236478 2.236478,0 4.9921385,0 7.7477989,0 9.984277,2.236478 9.984277,4.9921385 9.984277,7.7477989 7.7477989,9.984277 4.9921385,9.984277 2.236478,9.984277 0,7.7477989 0,4.9921385 Z"
       copytype="single_stretched"
       prop_scale="1"
       scale_y_rel="false"
       spacing="0"
       normal_offset="0"
       tang_offset="0"
       prop_units="false"
       vertical_pattern="false"
       hide_knot="false"
       fuse_tolerance="0" />
    <inkscape:path-effect
       effect="skeletal"
       id="path-effect1931"
       is_visible="true"
       lpeversion="1"
       pattern="M 0,4.9921385 C 0,2.236478 2.236478,0 4.9921385,0 7.7477989,0 9.984277,2.236478 9.984277,4.9921385 9.984277,7.7477989 7.7477989,9.984277 4.9921385,9.984277 2.236478,9.984277 0,7.7477989 0,4.9921385 Z"
       copytype="single_stretched"
       prop_scale="1"
       scale_y_rel="false"
       spacing="0"
       normal_offset="0"
       tang_offset="0"
       prop_units="false"
       vertical_pattern="false"
       hide_knot="false"
       fuse_tolerance="0" />
    <inkscape:path-effect
       effect="spiro"
       id="path-effect1929"
       is_visible="true"
       lpeversion="1" />
    <inkscape:path-effect
       effect="skeletal"
       id="path-effect1876"
       is_visible="true"
       lpeversion="1"
       pattern="M 0,4.9921385 C 0,2.236478 2.236478,0 4.9921385,0 7.7477989,0 9.984277,2.236478 9.984277,4.9921385 9.984277,7.7477989 7.7477989,9.984277 4.9921385,9.984277 2.236478,9.984277 0,7.7477989 0,4.9921385 Z"
       copytype="single_stretched"
       prop_scale="1"
       scale_y_rel="false"
       spacing="0"
       normal_offset="0"
       tang_offset="0"
       prop_units="false"
       vertical_pattern="false"
       hide_knot="false"
       fuse_tolerance="0" />
    <inkscape:path-effect
       effect="bspline"
       id="path-effect1874"
       is_visible="true"
       lpeversion="1"
       weight="33.333333"
       steps="2"
       helper_size="0"
       apply_no_weight="true"
       apply_with_weight="true"
       only_selected="false" />
    <inkscape:path-effect
       effect="skeletal"
       id="path-effect1762"
       is_visible="true"
       lpeversion="1"
       pattern="M 0,4.9921385 C 0,2.236478 2.236478,0 4.9921385,0 7.7477989,0 9.984277,2.236478 9.984277,4.9921385 9.984277,7.7477989 7.7477989,9.984277 4.9921385,9.984277 2.236478,9.984277 0,7.7477989 0,4.9921385 Z"
       copytype="repeated"
       prop_scale="1"
       scale_y_rel="false"
       spacing="0"
       normal_offset="0"
       tang_offset="0"
       prop_units="false"
       vertical_pattern="false"
       hide_knot="false"
       fuse_tolerance="0" />
    <inkscape:path-effect
       effect="spiro"
       id="path-effect1760"
       is_visible="true"
       lpeversion="1" />
    <inkscape:path-effect
       effect="skeletal"
       id="path-effect1756"
       is_visible="true"
       lpeversion="1"
       pattern="M 0,4.9921385 C 0,2.236478 2.236478,0 4.9921385,0 7.7477989,0 9.984277,2.236478 9.984277,4.9921385 9.984277,7.7477989 7.7477989,9.984277 4.9921385,9.984277 2.236478,9.984277 0,7.7477989 0,4.9921385 Z"
       copytype="single_stretched"
       prop_scale="1"
       scale_y_rel="false"
       spacing="0"
       normal_offset="0"
       tang_offset="0"
       prop_units="false"
       vertical_pattern="false"
       hide_knot="false"
       fuse_tolerance="0" />
    <inkscape:path-effect
       effect="bspline"
       id="path-effect1754"
       is_visible="true"
       lpeversion="1"
       weight="33.333333"
       steps="2"
       helper_size="0"
       apply_no_weight="true"
       apply_with_weight="true"
       only_selected="false" />
    <inkscape:path-effect
       effect="fillet_chamfer"
       id="path-effect1698"
       is_visible="true"
       lpeversion="1"
       nodesatellites_param="F,0,0,1,0,0,0,1 @ F,0,0,1,0,0,0,1 @ F,0,0,1,0,0,0,1"
       unit="px"
       method="auto"
       mode="F"
       radius="0"
       chamfer_steps="1"
       flexible="false"
       use_knot_distance="true"
       apply_no_radius="true"
       apply_with_radius="true"
       only_selected="false"
       hide_knots="false" />
    <inkscape:path-effect
       effect="skeletal"
       id="path-effect1333"
       is_visible="true"
       lpeversion="1"
       pattern="M 0,4.9921385 C 0,2.236478 2.236478,0 4.9921385,0 7.7477989,0 9.984277,2.236478 9.984277,4.9921385 9.984277,7.7477989 7.7477989,9.984277 4.9921385,9.984277 2.236478,9.984277 0,7.7477989 0,4.9921385 Z"
       copytype="repeated"
       prop_scale="1"
       scale_y_rel="false"
       spacing="0"
       normal_offset="0"
       tang_offset="0"
       prop_units="false"
       vertical_pattern="false"
       hide_knot="false"
       fuse_tolerance="0" />
    <inkscape:path-effect
       effect="bspline"
       id="path-effect1331"
       is_visible="true"
       lpeversion="1"
       weight="33.333333"
       steps="2"
       helper_size="0"
       apply_no_weight="true"
       apply_with_weight="true"
       only_selected="false" />
    <inkscape:path-effect
       effect="skeletal"
       id="path-effect1327"
       is_visible="true"
       lpeversion="1"
       pattern="M 0,4.9921385 C 0,2.236478 2.236478,0 4.9921385,0 7.7477989,0 9.984277,2.236478 9.984277,4.9921385 9.984277,7.7477989 7.7477989,9.984277 4.9921385,9.984277 2.236478,9.984277 0,7.7477989 0,4.9921385 Z"
       copytype="single_stretched"
       prop_scale="1"
       scale_y_rel="false"
       spacing="0"
       normal_offset="0"
       tang_offset="0"
       prop_units="false"
       vertical_pattern="false"
       hide_knot="false"
       fuse_tolerance="0" />
    <inkscape:path-effect
       effect="bspline"
       id="path-effect1325"
       is_visible="true"
       lpeversion="1"
       weight="33.333333"
       steps="2"
       helper_size="0"
       apply_no_weight="true"
       apply_with_weight="true"
       only_selected="false" />
    <inkscape:path-effect
       effect="spiro"
       id="path-effect1929-5"
       is_visible="true"
       lpeversion="1" />
  </defs>
  <g
     inkscape:label="Layer 1"
     inkscape:groupmode="layer"
     id="layer1"
     style="display:none">
    <path
       id="path2211-1"
       style="color:#000000;display:inline;fill:#ffffff;stroke:#000000;stroke-width:2;stroke-linecap:square;stroke-linejoin:round;stroke-dasharray:none;stroke-opacity:1"
       d="m 66.180457,0.5146966 c -0.655759,0.0058 -1.337095,0.01906 -2.051555,0.03979 -5.57744,0.161873 -8.429981,0.546119 -13.664282,1.841748 -12.13144,3.002855 -22.286223,8.7012014 -30.988289,17.3891204 -3.625655,3.61976 -6.268451,6.86071 -8.843388,10.8474 -6.054429,9.373877 -9.951535,21.230034 -10.415902,31.71486 l -0.150378,3.404443 a 0.40036354,0.40036354 0 0 0 0.298689,0.40411 l 2.738334,0.709 c 17.166186,4.444915 32.184791,14.216595 42.511618,27.652576 7.702035,10.020936 12.845244,23.066316 13.732495,34.800456 l 0.173632,2.30116 a 0.40036354,0.40036354 0 0 0 0.392741,0.37103 l 4.300513,0.0739 c 2.363471,0.0411 5.103732,0.1 6.078182,0.13074 l 1.785421,0.0568 a 0.40036354,0.40036354 0 0 0 0.411861,-0.35916 l 0.289388,-2.84582 C 74.337706,113.70266 80.631085,99.56738 91.007882,88.109351 100.5828,77.536744 114.73347,69.582124 129.0314,66.738045 l 2.8143,-0.560172 a 0.40036354,0.40036354 0 0 0 0.32246,-0.42013 L 132.0059,63.351689 C 131.57807,56.952798 130.5049,51.418234 128.55081,45.538822 121.08585,23.078343 102.12387,6.3955996 78.777104,1.7440796 74.107416,0.8137076 70.770769,0.4740056 66.180457,0.5146966 Z" />
    <path
       id="path2211-1-3"
       style="color:#000000;display:inline;fill:#ffffff;stroke:#000000;stroke-width:2;stroke-linecap:square;stroke-linejoin:round;stroke-dasharray:none;stroke-opacity:1"
       d="m 10.705297,59.145616 c -0.655759,0.0058 -1.3370949,0.01906 -2.0515549,0.03979 -5.5774401,0.161873 -8.42998103,0.546119 -13.664282,1.841748 -12.1314401,3.002854 -22.2862231,8.701201 -30.9882891,17.38912 -3.625655,3.61976 -6.268451,6.86071 -8.843388,10.8474 -6.054429,9.373877 -9.951535,21.230036 -10.415902,31.714856 l -0.150378,3.40445 a 0.40036354,0.40036354 0 0 0 0.298689,0.40411 l 2.738334,0.709 c 17.166186,4.44491 32.184791,14.21659 42.5116179,27.65257 7.7020352,10.02094 12.8452441,23.06632 13.7324951,34.80046 l 0.173632,2.30116 a 0.40036354,0.40036354 0 0 0 0.392741,0.37103 l 4.3005131,0.0739 c 2.3634709,0.0411 5.1037319,0.1 6.0781819,0.13074 l 1.785421,0.0568 a 0.40036354,0.40036354 0 0 0 0.411861,-0.35916 l 0.289388,-2.84582 c 1.558169,-15.34419 7.851548,-29.47947 18.228343,-40.9375 9.57492,-10.57261 23.72559,-18.52723 38.02352,-21.37131 l 2.8143,-0.56017 a 0.40036354,0.40036354 0 0 0 0.32246,-0.42013 l -0.16226,-2.40605 c -0.42783,-6.39889 -1.501,-11.93346 -3.45509,-17.81287 C 65.61069,81.709262 46.64871,65.026518 23.301944,60.374999 18.632256,59.444627 15.295609,59.104925 10.705297,59.145616 Z" />
    <path
       id="path2211-1-3-3"
       style="color:#000000;display:inline;fill:#ffffff;stroke:#000000;stroke-width:2;stroke-linecap:square;stroke-linejoin:round;stroke-dasharray:none;stroke-opacity:1"
       d="m 110.72953,59.145616 c -0.65576,0.0058 -1.33709,0.01906 -2.05155,0.03979 -5.57744,0.161873 -8.42998,0.546119 -13.664282,1.841748 -12.13144,3.002854 -22.286223,8.701201 -30.988289,17.38912 -3.625655,3.61976 -6.268451,6.86071 -8.843388,10.8474 -6.054429,9.373875 -9.951535,21.230036 -10.415902,31.714856 l -0.150378,3.40445 a 0.40036354,0.40036354 0 0 0 0.298689,0.40411 l 2.738334,0.709 c 17.166186,4.44491 32.184791,14.21659 42.511618,27.65257 7.702035,10.02094 12.845248,23.06632 13.732498,34.80046 l 0.17363,2.30116 a 0.40036354,0.40036354 0 0 0 0.39274,0.37103 l 4.30051,0.0739 c 2.36347,0.0411 5.10373,0.1 6.07818,0.13074 l 1.78542,0.0568 a 0.40036354,0.40036354 0 0 0 0.41186,-0.35916 l 0.28939,-2.84582 c 1.55817,-15.34419 7.85155,-29.47947 18.22835,-40.9375 9.57493,-10.57261 23.72559,-18.52723 38.02352,-21.37131 l 2.8143,-0.56017 a 0.40036354,0.40036354 0 0 0 0.32246,-0.42013 l -0.16226,-2.40605 c -0.42783,-6.39889 -1.501,-11.93346 -3.45509,-17.81287 -7.46496,-22.460478 -26.42694,-39.143222 -49.77371,-43.794741 -4.66969,-0.930372 -8.00634,-1.270074 -12.59665,-1.229383 z" />
  </g>
  <g
     inkscape:groupmode="layer"
     id="layer3"
     inkscape:label="Layer 3">
    <path
       id="path4891"
       style="color:#000000;fill:#ffffff;stroke-width:1.22492;stroke-linecap:square;stroke-linejoin:round;-inkscape-stroke:none;stroke:none;stroke-opacity:1"
       d="M 66.146867 0.25011393 C 43.469352 0.25011393 25.073922 18.645541 25.073922 41.323059 A 0.30626059 0.30626059 0 0 0 25.220683 41.563354 L 25.191744 41.576274 L 66.146867 132.04155 L 107.10302 41.576274 L 107.07253 41.562321 A 0.30626059 0.30626059 0 0 0 107.21774 41.323059 C 107.21774 18.64555 88.824395 0.25011393 66.146867 0.25011393 z M 66.082271 1.9724894 C 67.786076 1.9724894 69.466072 2.081244 71.113489 2.2908162 A 0.50005 0.50005 0 0 1 71.443184 2.4902873 A 0.50005 0.50005 0 0 1 71.798718 2.3869344 C 78.610499 3.3755511 84.860375 6.1033586 90.08184 10.105326 A 0.50005 0.50005 0 0 1 90.25599 10.431405 A 0.50005 0.50005 0 0 1 90.523674 10.445357 C 95.218941 14.149719 99.05309 18.895332 101.67803 24.335982 A 0.50005 0.50005 0 0 1 101.70129 24.702885 A 0.50005 0.50005 0 0 1 101.93796 24.892537 C 104.07848 29.512312 105.35242 34.61515 105.55118 39.990324 A 0.50005 0.50005 0 0 1 105.43181 40.320536 A 0.50005 0.50005 0 0 1 105.5703 40.534993 C 105.578 40.846023 105.58219 41.159419 105.58219 41.474471 A 0.50005 0.50005 0 0 1 105.58012 41.509611 C 105.57461 41.587625 105.49218 41.627764 105.46488 41.699264 A 0.50005 0.50005 0 0 1 105.42767 41.919922 L 101.22276 51.208761 A 0.50005 0.50005 0 0 1 101.01399 51.320382 A 0.50005 0.50005 0 0 1 101.00986 51.677466 L 96.054602 62.623051 A 0.50005 0.50005 0 0 1 95.859265 62.769295 A 0.50005 0.50005 0 0 1 95.838078 63.105709 L 94.574072 65.896236 A 0.50005 0.50005 0 0 1 94.310522 66.125163 A 0.50005 0.50005 0 0 1 94.299154 66.503951 L 92.724573 69.980225 A 0.50005 0.50005 0 0 1 92.548873 70.129053 A 0.50005 0.50005 0 0 1 92.519417 70.433427 L 88.324325 79.697461 A 0.50005 0.50005 0 0 1 88.193583 79.873161 C 88.024584 80.016258 87.863493 80.175061 87.697489 80.324296 A 0.50005 0.50005 0 0 1 87.808594 80.835893 L 87.736247 80.99609 A 0.50005 0.50005 0 0 1 87.652531 81.03123 C 87.618841 81.0595 87.586385 81.088453 87.552795 81.117013 A 0.50005 0.50005 0 0 1 87.537292 81.439473 L 82.07406 93.501786 A 0.50005 0.50005 0 0 1 81.839966 93.66405 A 0.50005 0.50005 0 0 1 81.835832 94.03147 L 76.425826 105.98216 A 0.50005 0.50005 0 0 1 76.230489 106.14443 A 0.50005 0.50005 0 0 1 76.203101 106.47464 L 75.111178 108.88483 A 0.50005 0.50005 0 0 1 74.894653 109.11737 C 74.829328 109.15294 74.774165 109.2173 74.709135 109.2538 A 0.50005 0.50005 0 0 1 74.744275 109.69718 L 71.267485 117.37681 A 0.50005 0.50005 0 0 1 71.078349 117.45898 A 0.50005 0.50005 0 0 1 71.072148 117.80831 L 66.537024 127.82217 A 0.50005 0.50005 0 0 1 65.627002 127.82217 L 61.076375 117.77162 A 0.50005 0.50005 0 0 1 61.074308 117.40214 A 0.50005 0.50005 0 0 1 60.869153 117.31274 L 57.702938 110.3204 A 0.50005 0.50005 0 0 1 57.794922 109.91577 C 57.693226 109.84891 57.606482 109.74411 57.503984 109.67961 A 0.50005 0.50005 0 0 1 57.314331 109.46309 L 55.906148 106.35165 A 0.50005 0.50005 0 0 1 55.96661 106.1036 A 0.50005 0.50005 0 0 1 55.687557 105.86899 L 50.338013 94.05059 A 0.50005 0.50005 0 0 1 50.371086 93.714693 A 0.50005 0.50005 0 0 1 50.097717 93.521423 L 44.582292 81.336121 A 0.50005 0.50005 0 0 1 44.580225 80.982654 A 0.50005 0.50005 0 0 1 44.380754 80.894287 L 39.679749 70.507841 A 0.50005 0.50005 0 0 1 39.74021 70.27323 A 0.50005 0.50005 0 0 1 39.470976 70.04482 L 38.099483 67.017615 A 0.50005 0.50005 0 0 1 38.166146 66.640377 C 38.128211 66.625107 38.094612 66.594885 38.056592 66.579915 A 0.50005 0.50005 0 0 1 37.785291 66.32205 L 36.146631 62.705216 A 0.50005 0.50005 0 0 1 36.189522 62.414278 A 0.50005 0.50005 0 0 1 35.925972 62.216874 L 31.115413 51.589616 A 0.50005 0.50005 0 0 1 31.128849 51.228398 A 0.50005 0.50005 0 0 1 30.888554 51.089905 L 26.73842 41.919922 A 0.50005 0.50005 0 0 1 26.77356 41.82432 C 26.706737 41.716808 26.59114 41.639126 26.58184 41.509611 A 0.50005 0.50005 0 0 1 26.58029 41.474471 C 26.58029 41.064075 26.589217 40.657378 26.601477 40.253874 A 0.50005 0.50005 0 0 1 26.777177 39.993941 A 0.50005 0.50005 0 0 1 26.623181 39.683366 C 26.86075 34.367355 28.150747 29.322135 30.289107 24.754045 A 0.50005 0.50005 0 0 1 30.572294 24.539071 A 0.50005 0.50005 0 0 1 30.544906 24.21661 C 33.094335 18.97841 36.767437 14.388759 41.250195 10.75955 A 0.50005 0.50005 0 0 1 41.529248 10.748181 A 0.50005 0.50005 0 0 1 41.687378 10.40815 C 46.911375 6.2999758 53.198024 3.4781409 60.064551 2.4277588 A 0.50005 0.50005 0 0 1 60.466593 2.5450643 C 60.470293 2.5482333 60.472712 2.5532531 60.476412 2.5564331 A 0.50005 0.50005 0 0 1 60.742029 2.3342244 C 62.488222 2.0980181 64.270915 1.9724894 66.082271 1.9724894 z M 66.082271 2.9724284 C 64.638824 2.9724286 63.228651 3.104158 61.8262 3.2597493 C 63.043701 4.469343 64.220365 5.7615397 65.242013 7.2868937 C 65.551042 7.2675877 65.86019 7.2481364 66.173739 7.2481364 C 66.317418 7.2481364 66.45681 7.255552 66.597485 7.260022 C 67.623962 5.7314561 68.803701 4.4337033 70.02725 3.2225423 C 68.725918 3.0895182 67.418893 2.9724284 66.082271 2.9724284 z M 71.904138 3.4297648 C 70.613492 4.5606311 69.436639 5.959983 68.332263 7.4899821 C 73.016064 8.1666887 77.238536 10.935345 80.550639 15.146362 C 81.290145 15.032804 82.036252 14.948051 82.792879 14.947408 C 83.275458 14.947458 83.748159 14.988248 84.218632 15.035258 C 85.636096 13.252265 87.22661 11.756224 88.935657 10.537341 C 84.018353 6.8976799 78.22158 4.3896768 71.904138 3.4297648 z M 59.964815 3.4726562 C 53.587793 4.4924695 47.748395 7.0913869 42.822192 10.838098 C 44.413034 12.036464 45.89385 13.479986 47.222441 15.173751 C 48.016339 15.043519 48.817805 14.947412 49.631079 14.947408 C 50.363649 14.947646 51.08582 15.026735 51.802523 15.132926 C 55.000985 11.070492 59.047963 8.3519912 63.539274 7.5587118 C 62.435756 6.0192676 61.256324 4.6119743 59.964815 3.4726562 z M 66.173739 8.7147135 C 61.570817 8.7292926 57.110395 11.143772 53.460819 15.519466 C 57.741041 16.635707 61.704805 19.514079 64.832218 23.908101 A 0.50005 0.50005 0 0 1 64.834285 23.912236 C 64.843555 23.925406 64.839121 23.943624 64.847721 23.957194 C 65.288831 23.89166 65.731211 23.806349 66.2342 23.804749 C 66.2367 23.80474 66.239968 23.80474 66.242468 23.804749 C 66.724405 23.806401 67.147497 23.886003 67.57417 23.949443 A 0.50005 0.50005 0 0 1 67.601558 23.902417 C 70.7163 19.528538 74.660169 16.654881 78.919731 15.529285 C 75.262731 11.139917 70.79 8.7218235 66.175806 8.7147135 L 66.173739 8.7147135 z M 90.173824 11.498006 C 88.654377 12.509529 87.227172 13.815352 85.904317 15.355652 C 90.428136 16.309076 94.639043 19.227953 97.93149 23.814567 C 97.94362 23.831497 97.936063 23.855371 97.946993 23.872961 C 98.143538 23.842181 98.317307 23.805621 98.574345 23.804749 A 0.50005 0.50005 0 0 1 98.575895 23.804749 A 0.50005 0.50005 0 0 1 98.577962 23.804749 C 99.174604 23.804746 99.750751 23.897903 100.33186 23.968563 C 97.849875 19.124492 94.378399 14.882874 90.173824 11.498006 z M 41.599528 11.8184 C 37.60706 15.119033 34.338822 19.229915 31.939136 23.869344 C 32.254251 23.847404 32.563762 23.804747 32.884814 23.804749 L 32.886882 23.804749 A 0.50005 0.50005 0 0 1 32.888432 23.804749 C 33.424094 23.806597 33.904541 23.89729 34.384981 23.97063 A 0.50005 0.50005 0 0 1 34.408236 23.929806 C 37.488057 19.595059 41.383255 16.728182 45.592049 15.570109 C 44.353854 14.093648 43.018862 12.827957 41.599528 11.8184 z M 49.631079 16.413985 C 44.648158 16.414015 39.835483 19.21703 36.048962 24.263635 C 39.328266 24.96492 42.369743 26.6412 44.984334 29.179614 C 46.481705 28.705677 48.029889 28.410152 49.629012 28.410152 C 51.192138 28.410152 52.705511 28.695182 54.171887 29.148608 C 56.80913 26.598211 59.880327 24.921979 63.189425 24.240381 C 59.406375 19.209582 54.604796 16.415585 49.631079 16.413985 z M 82.792879 16.413985 C 77.824961 16.418196 73.028107 19.208532 69.24797 24.230562 C 72.518814 24.89477 75.558997 26.527597 78.177657 29.021484 C 79.518585 28.645702 80.897234 28.410152 82.316423 28.410152 C 83.788487 28.410152 85.217649 28.662903 86.605566 29.066443 C 89.406379 26.387821 92.670217 24.617343 96.207048 24.056413 C 92.444473 19.146518 87.702751 16.414458 82.792879 16.413985 z M 32.882747 25.271326 C 32.289458 25.28026 31.6964 25.34676 31.105595 25.43359 C 29.188444 29.605133 28.036731 34.184631 27.72854 38.998136 C 29.382745 38.411079 31.099928 38.036955 32.884814 38.036955 C 33.243066 38.036955 33.595637 38.060807 33.947282 38.086047 C 36.513945 34.251006 39.758224 31.363079 43.420089 29.779061 C 40.216714 26.862667 36.591166 25.284906 32.886882 25.271326 L 32.882747 25.271326 z M 66.236267 25.271326 C 62.547843 25.284447 58.937839 26.850047 55.743884 29.742371 C 59.443398 31.315927 62.724141 34.210552 65.312292 38.076229 C 65.61941 38.057159 65.926754 38.036955 66.238334 38.036955 C 66.379348 38.036955 66.516207 38.042473 66.654329 38.046773 C 69.3242 34.069664 72.726687 31.123078 76.566386 29.59561 C 73.412526 26.798882 69.863741 25.285246 66.240401 25.271326 L 66.236267 25.271326 z M 98.574345 25.271326 C 94.930117 25.285571 91.361786 26.816903 88.195133 29.644702 C 91.985399 31.189277 95.34522 34.118769 97.986267 38.056592 C 98.182292 38.048052 98.377333 38.036955 98.577962 38.036955 C 100.62039 38.036955 102.57832 38.513272 104.44737 39.273572 C 104.17056 34.409293 103.03716 29.778049 101.11889 25.562264 C 100.27385 25.393506 99.425942 25.279726 98.574345 25.271326 z M 49.629012 29.878796 C 44.424683 29.880202 39.412741 32.935366 35.568372 38.394556 C 38.622662 38.946354 41.48062 40.342417 43.99008 42.505933 C 45.762711 41.834288 47.601467 41.453294 49.4745 41.453284 C 51.390117 41.453906 53.270676 41.852039 55.080359 42.554508 C 57.632203 40.339265 60.545244 38.91768 63.662264 38.376986 C 59.823493 32.934237 54.824129 29.886596 49.631079 29.878796 L 49.629012 29.878796 z M 82.316423 29.878796 C 77.145717 29.887192 72.166676 32.911874 68.333813 38.31239 C 71.58499 38.771244 74.628379 40.188158 77.283138 42.460974 C 79.015 41.819905 80.807977 41.454884 82.634749 41.453284 A 0.50005 0.50005 0 0 1 82.636816 41.453284 C 84.341987 41.453441 86.015826 41.791818 87.642712 42.35142 C 90.228439 40.168923 93.180947 38.805852 96.32797 38.32996 C 92.489488 32.912424 87.500702 29.880996 82.31849 29.878796 L 82.316423 29.878796 z M 32.882747 39.504049 C 31.097013 39.519705 29.324358 39.915765 27.595732 40.631112 C 27.589562 40.888699 27.58241 41.1469 27.581779 41.404191 A 0.50005 0.50005 0 0 1 27.427783 42.15815 L 27.855147 41.962813 L 31.660083 50.366951 C 32.011836 50.340062 32.364495 50.310683 32.726685 50.310624 L 32.728235 50.310624 C 32.729035 50.310624 32.729589 50.310622 32.730302 50.310624 A 0.50005 0.50005 0 0 1 32.732369 50.310624 C 33.267978 50.312472 33.74801 50.403166 34.228402 50.476506 A 0.50005 0.50005 0 0 1 34.252173 50.435681 C 36.587866 47.148234 39.413584 44.773563 42.465108 43.259892 C 39.493889 40.86663 36.227905 39.517199 32.888949 39.504049 L 32.882747 39.504049 z M 66.238334 39.504049 C 62.870371 39.515563 59.576871 40.884512 56.585693 43.316219 C 59.588127 44.831043 62.370619 47.177488 64.675639 50.416044 A 0.50005 0.50005 0 0 1 64.677706 50.419661 C 64.686526 50.432181 64.681491 50.4502 64.689591 50.46307 C 65.130208 50.397616 65.573718 50.312424 66.07607 50.310624 L 66.078137 50.310624 C 66.080437 50.310618 66.083589 50.310614 66.085889 50.310624 C 66.56783 50.312276 66.991438 50.391888 67.418107 50.455318 A 0.50005 0.50005 0 0 1 67.445496 50.41036 C 69.811644 47.087714 72.678637 44.70352 75.773669 43.200981 C 72.811872 40.838689 69.562064 39.509249 66.240401 39.504049 L 66.238334 39.504049 z M 98.577962 39.504049 C 95.32215 39.512145 92.134689 40.798764 89.218844 43.074373 C 92.398268 44.545832 95.346038 46.939023 97.77336 50.320443 A 0.50005 0.50005 0 0 1 97.775427 50.320443 C 97.787557 50.337383 97.780457 50.361227 97.791447 50.378837 C 97.987991 50.348057 98.16124 50.311495 98.418282 50.310624 A 0.50005 0.50005 0 0 1 98.420349 50.310624 A 0.50005 0.50005 0 0 1 98.422416 50.310624 C 99.111763 50.31062 99.785022 50.387133 100.45537 50.478573 L 104.51765 41.508061 L 104.53729 41.556637 A 0.50005 0.50005 0 0 1 104.58225 41.468787 A 0.50005 0.50005 0 0 1 104.68198 41.275517 C 104.62488 41.31057 104.58725 41.372481 104.58225 41.439331 C 104.58225 41.258551 104.5775 41.077611 104.5745 40.896729 C 102.62535 39.993131 100.60983 39.505749 98.580029 39.504049 L 98.578479 39.504049 L 98.577962 39.504049 z M 49.472432 42.921928 C 44.489461 42.921958 39.67737 45.722809 35.890833 50.769511 C 39.170773 51.470578 42.213244 53.148678 44.828271 55.687557 C 46.325642 55.213618 47.873304 54.918095 49.472432 54.918095 C 51.03555 54.918095 52.549448 55.201062 54.015824 55.654484 C 56.653468 53.103693 59.723687 51.429168 63.033362 50.747807 C 59.250313 45.717007 54.446149 42.923528 49.472432 42.921928 z M 82.636816 42.921928 C 77.668898 42.926138 72.872044 45.716476 69.091907 50.738505 C 72.362641 51.402771 75.403014 53.033537 78.021594 55.52736 C 79.362523 55.15158 80.741181 54.918095 82.16036 54.918095 C 83.632413 54.918095 85.061049 55.168722 86.448987 55.572319 C 89.249631 52.893872 92.512345 51.123315 96.048918 50.562288 C 92.286368 45.652528 87.546618 42.922401 82.636816 42.921928 z M 32.726685 51.779268 C 32.589049 51.786368 32.451826 51.805175 32.314307 51.816475 L 36.552808 61.175594 C 38.557849 59.026652 40.826349 57.374522 43.292965 56.310775 C 40.082172 53.377066 36.444627 51.792358 32.728752 51.779268 L 32.726685 51.779268 z M 66.080204 51.779268 C 62.392239 51.792387 58.781486 53.356625 55.587821 56.248246 C 59.288307 57.822049 62.569759 60.717149 65.158297 64.584172 C 65.464776 64.565182 65.771348 64.544897 66.082271 64.544897 C 66.22192 64.544897 66.357246 64.550516 66.494132 64.554716 C 69.163916 60.576917 72.568393 57.629434 76.408256 56.101485 C 73.254719 53.305728 69.706601 51.793048 66.083822 51.779268 L 66.080204 51.779268 z M 98.414148 51.779268 C 94.75722 51.794474 91.176406 53.333606 88.001864 56.181584 C 90.746058 57.295905 93.252267 59.139379 95.431901 61.576086 L 99.810445 51.904325 C 99.348729 51.849785 98.887013 51.786368 98.423966 51.779268 L 98.414148 51.779268 z M 49.472432 56.384672 C 45.069009 56.394313 40.775001 58.572512 37.201347 62.609615 L 38.630717 65.765495 C 39.90623 66.287826 41.130444 66.974902 42.29716 67.804647 C 44.604463 66.616134 47.055629 65.945349 49.566484 65.945329 C 52.006902 65.946126 54.39126 66.579043 56.642537 67.704911 C 58.745864 66.232838 61.056773 65.285058 63.486564 64.861157 C 59.650123 59.43481 54.659315 56.392472 49.4745 56.384672 L 49.472949 56.384672 L 49.472432 56.384672 z M 82.16036 56.384672 C 76.996069 56.392321 72.024545 59.41154 68.193254 64.798629 C 70.82073 65.17177 73.314423 66.158474 75.570064 67.747803 C 77.844382 66.594418 80.258341 65.947429 82.728284 65.945329 C 84.998891 65.945549 87.22029 66.496442 89.332015 67.474434 C 90.722386 66.545819 92.194447 65.820919 93.730713 65.329862 L 94.784912 63.001839 C 91.145873 58.710693 86.713806 56.389372 82.16036 56.384672 z M 66.080204 66.011475 C 63.338396 66.021664 60.641114 66.954334 58.10343 68.589612 C 60.553053 70.110341 62.831407 72.187711 64.767623 74.908089 A 0.50005 0.50005 0 0 1 64.76969 74.910156 C 64.77881 74.923166 64.772559 74.941715 64.781059 74.955115 C 65.2226 74.889381 65.666213 74.804269 66.170121 74.802669 C 66.172621 74.80266 66.175373 74.80266 66.177873 74.802669 C 66.660731 74.804324 67.084532 74.883713 67.511641 74.947363 A 0.50005 0.50005 0 0 1 67.536963 74.902405 C 69.456887 72.206324 71.715371 70.142504 74.140694 68.624752 C 71.57952 66.961341 68.854163 66.016275 66.083822 66.011475 L 66.080204 66.011475 z M 92.812423 67.359196 C 92.161652 67.640315 91.51399 67.934626 90.882825 68.312626 C 91.275855 68.545506 91.666805 68.782757 92.048645 69.046948 L 92.812423 67.359196 z M 49.564417 67.413973 C 46.527688 67.427582 43.538982 68.51412 40.777356 70.511975 L 45.13678 80.138778 C 46.56914 79.706644 48.039789 79.41014 49.564417 79.41014 C 51.128198 79.41014 52.642424 79.692765 54.109359 80.146529 C 56.746142 77.597159 59.81658 75.921787 63.124829 75.240369 C 59.342762 70.210875 54.540902 67.416973 49.568551 67.413973 L 49.564417 67.413973 z M 82.726733 67.413973 C 77.759499 67.418892 72.963537 70.209173 69.183891 75.23055 C 72.45473 75.894774 75.494925 77.527589 78.113578 80.021472 C 79.454512 79.64569 80.832637 79.41014 82.251827 79.41014 C 83.710387 79.41014 85.126085 79.662254 86.502214 80.058679 C 86.815443 79.758678 87.133768 79.468209 87.457194 79.191549 L 91.418193 70.441178 C 88.682861 68.489547 85.729431 67.426823 82.7288 67.413973 L 82.726733 67.413973 z M 39.632723 67.97828 L 40.140702 69.099658 C 40.367911 68.941231 40.59904 68.793621 40.830066 68.646456 C 40.436956 68.395772 40.034551 68.191162 39.632723 67.97828 z M 66.171672 76.271313 C 62.484048 76.284432 58.87532 77.849194 55.681873 80.740291 C 59.381699 82.314262 62.661602 85.209737 65.249764 89.076217 C 65.556244 89.057227 65.862815 89.036943 66.173739 89.036943 C 66.31443 89.036943 66.450029 89.042561 66.587667 89.046761 C 69.25717 85.069339 72.660878 82.121623 76.50024 80.59353 C 73.346676 77.797942 69.798554 76.284953 66.175806 76.271313 L 66.171672 76.271313 z M 87.419987 80.578027 C 87.371892 80.622786 87.321026 80.663449 87.273226 80.708769 L 87.472697 80.861214 L 87.419987 80.578027 z M 49.564417 80.878784 C 48.285411 80.882728 47.016009 81.147314 45.757931 81.51182 L 50.912138 92.892521 C 52.214813 93.028851 53.497136 93.328419 54.746012 93.791174 C 57.362388 91.44535 60.372611 89.940926 63.599736 89.381108 C 59.76064 83.936066 54.760683 80.886584 49.566484 80.878784 L 49.564417 80.878784 z M 82.24976 80.878784 C 77.102235 80.887876 72.148292 83.89307 68.322445 89.248299 C 71.664974 89.728072 74.768924 91.290455 77.474858 93.679553 C 78.711617 93.248103 79.979272 92.976699 81.265841 92.865133 L 86.363204 81.607422 C 85.007804 81.18279 83.63556 80.882984 82.253894 80.878784 L 82.24976 80.878784 z M 66.173739 90.504036 C 62.694059 90.511347 59.279285 91.89786 56.213106 94.482605 C 59.32496 95.984178 62.205348 98.38521 64.582104 101.72454 A 0.50005 0.50005 0 0 1 64.584172 101.72867 C 64.593292 101.74167 64.58714 101.76023 64.59554 101.77363 C 65.036674 101.70808 65.47956 101.62319 65.982536 101.62119 C 65.985336 101.62118 65.987387 101.62118 65.990287 101.62119 C 66.472407 101.62285 66.897243 101.70238 67.324056 101.76588 A 0.50005 0.50005 0 0 1 67.351444 101.71886 C 69.79788 98.283441 72.776689 95.846214 75.994328 94.363232 C 72.963733 91.856108 69.600819 90.510936 66.175806 90.504036 L 66.173739 90.504036 z M 80.517566 94.517745 C 76.284639 95.149276 72.268705 97.728723 69.013875 102.02323 C 71.412971 102.51378 73.677601 103.54391 75.746281 105.05664 L 80.517566 94.517745 z M 51.66403 94.554435 L 56.369169 104.94708 C 58.387756 103.49753 60.59034 102.50925 62.919674 102.02736 C 59.731047 97.816608 55.807229 95.252552 51.66403 94.554435 z M 65.984603 103.08776 C 62.874527 103.10779 59.816683 104.25192 57.003756 106.34958 L 58.181462 108.95097 C 60.785643 110.62423 63.113057 112.99029 65.056494 115.89215 C 65.364888 115.87285 65.673265 115.85339 65.986153 115.85339 C 66.129089 115.85339 66.268559 115.85921 66.40835 115.86321 C 68.590969 112.61305 71.254518 110.0338 74.251799 108.35928 L 75.10756 106.46895 C 72.258845 104.29835 69.152701 103.11296 65.990287 103.08776 L 65.984603 103.08776 z M 73.003813 111.11311 C 71.23661 112.42902 69.580902 114.05725 68.119356 116.09162 C 68.932575 116.20954 69.738029 116.3593 70.519727 116.60167 L 73.003813 111.11311 z M 59.535384 111.94149 L 61.613293 116.53346 C 62.190712 116.36212 62.781221 116.2464 63.374943 116.14278 C 62.207121 114.50304 60.91034 113.12741 59.535384 111.94149 z M 65.986153 117.32049 C 64.731306 117.3287 63.486616 117.58996 62.252014 117.94526 L 66.082271 126.40417 L 69.894442 117.98246 C 68.604651 117.60017 67.30251 117.32349 65.990287 117.32049 L 65.986153 117.32049 z " />
  </g>
  <g
     inkscape:groupmode="layer"
     id="layer2-6"
     inkscape:label="Layer 2"
     transform="translate(114.32449,-28.759315)"
     style="stroke:#000000;stroke-opacity:1" />
</svg>
