<?xml version="1.0" encoding="UTF-8" standalone="no"?>
<!-- Created with Inkscape (http://www.inkscape.org/) -->

<svg
   width="500"
   height="500"
   viewBox="0 0 132.29166 132.29167"
   version="1.1"
   id="svg5"
   inkscape:export-filename="..\ryley is an artist yes\shockwave.png"
   inkscape:export-xdpi="96"
   inkscape:export-ydpi="96"
   inkscape:version="1.2.1 (9c6d41e410, 2022-07-14)"
   sodipodi:docname="shockwave.svg"
   xmlns:inkscape="http://www.inkscape.org/namespaces/inkscape"
   xmlns:sodipodi="http://sodipodi.sourceforge.net/DTD/sodipodi-0.dtd"
   xmlns="http://www.w3.org/2000/svg"
   xmlns:svg="http://www.w3.org/2000/svg">
  <sodipodi:namedview
     id="namedview7"
     pagecolor="#505050"
     bordercolor="#eeeeee"
     borderopacity="1"
     inkscape:showpageshadow="0"
     inkscape:pageopacity="0"
     inkscape:pagecheckerboard="0"
     inkscape:deskcolor="#505050"
     inkscape:document-units="mm"
     showgrid="false"
     inkscape:zoom="1.4912879"
     inkscape:cx="345.67437"
     inkscape:cy="256.82499"
     inkscape:window-width="1920"
     inkscape:window-height="1017"
     inkscape:window-x="-8"
     inkscape:window-y="-8"
     inkscape:window-maximized="1"
     inkscape:current-layer="layer1" />
  <defs
     id="defs2">
    <inkscape:path-effect
       effect="bspline"
       id="path-effect1286"
       is_visible="true"
       lpeversion="1"
       weight="33.333333"
       steps="2"
       helper_size="0"
       apply_no_weight="true"
       apply_with_weight="true"
       only_selected="false" />
    <inkscape:path-effect
       effect="bspline"
       id="path-effect1282"
       is_visible="true"
       lpeversion="1"
       weight="33.333333"
       steps="2"
       helper_size="0"
       apply_no_weight="true"
       apply_with_weight="true"
       only_selected="false" />
    <inkscape:path-effect
       effect="bspline"
       id="path-effect1278"
       is_visible="true"
       lpeversion="1"
       weight="33.333333"
       steps="2"
       helper_size="0"
       apply_no_weight="true"
       apply_with_weight="true"
       only_selected="false" />
    <inkscape:path-effect
       effect="bspline"
       id="path-effect1278-5"
       is_visible="true"
       lpeversion="1"
       weight="33.333333"
       steps="2"
       helper_size="0"
       apply_no_weight="true"
       apply_with_weight="true"
       only_selected="false" />
  </defs>
  <g
     inkscape:label="Layer 1"
     inkscape:groupmode="layer"
     id="layer1">
    <g
       id="rect1210" />
    <path
       style="color:#000000;fill:#ffffff;-inkscape-stroke:none"
       d="m -4.3378906,92.355469 v 1.580078 42.517573 H 136.63086 V 92.355469 Z m 3.1582031,3.160156 H 133.4707 V 133.29297 H -1.1796875 Z"
       id="path1864" />
    <path
       id="path1268"
       style="color:#000000;fill:#ffffff;-inkscape-stroke:none"
       d="M 64.6467 14.886947 C 64.646959 38.034741 64.646948 61.182919 64.6467 84.330253 C 63.981091 84.335775 63.300368 84.374864 62.618917 84.496134 C 61.400571 84.712954 60.095301 85.267819 59.228426 86.443302 C 57.494652 88.794302 57.670718 92.142272 57.582015 95.394694 L 60.580282 95.476343 C 60.668981 92.22392 61.02122 89.067384 61.642749 88.224589 C 61.953525 87.803177 62.36873 87.589045 63.144466 87.450993 C 63.573308 87.374675 64.087605 87.344593 64.652901 87.337821 C 64.663927 90.052903 64.674418 92.767748 64.685457 95.482544 L 67.685791 95.470658 C 67.674767 92.759648 67.663728 90.048592 67.652718 87.337305 C 68.242958 87.342518 68.779573 87.371775 69.224715 87.450993 C 70.000451 87.589045 70.415657 87.803177 70.726432 88.224589 C 71.347962 89.067384 71.700198 92.22392 71.7889 95.476343 L 74.789233 95.394694 C 74.700533 92.142272 74.87453 88.794302 73.140755 86.443302 C 72.273879 85.267819 70.968093 84.712954 69.749748 84.496134 C 69.041939 84.370171 68.336107 84.333385 67.646517 84.330253 C 67.646765 61.182899 67.646776 38.034762 67.646517 14.886947 L 64.6467 14.886947 z " />
    <path
       style="color:#000000;fill:#ffffff;-inkscape-stroke:none"
       d="m 41.986584,134.8729 c 7.064308,4.30214 15.341699,6.77944 24.191289,6.77944 8.84959,0 17.126782,-2.4773 24.190771,-6.77944 h -3.016353 c -6.322004,3.36928 -13.526116,5.27927 -21.174418,5.27927 -7.648303,0 -14.852598,-1.90999 -21.174935,-5.27927 z"
       id="path334" />
    <path
       style="color:#000000;fill:#ffffff;-inkscape-stroke:none"
       d="m 23.681242,134.8729 c 10.662974,11.37724 25.758931,18.47846 42.496631,18.47846 16.7377,1e-5 31.833158,-7.10122 42.495597,-18.47846 h -1.37511 c -10.438381,10.78339 -25.002633,17.47853 -41.120487,17.47852 -16.117854,0 -30.682616,-6.69513 -41.121521,-17.47852 z"
       id="path332" />
    <path
       style="color:#000000;fill:#ffffff;-inkscape-stroke:none"
       d="m 10.071737,134.8729 c 12.79757,17.16854 33.151524,28.27373 56.074613,28.27373 22.923092,1e-5 43.27645,-11.10519 56.07358,-28.27373 h -0.62425 c -12.71797,16.8768 -32.820667,27.77351 -55.44933,27.7735 -22.62866,0 -42.731948,-10.89671 -55.450362,-27.7735 z"
       id="path330" />
    <path
       style="color:#000000;fill:#ffffff;-inkscape-stroke:none"
       d="m 73.27408,78.098075 v 2.183846 c 5.178343,2.486917 8.867345,7.60375 9.392709,13.652914 h 2.013314 C 84.121603,86.780077 79.570164,80.742738 73.27408,78.098075 Z"
       id="path328" />
    <path
       style="color:#000000;fill:#ffffff;-inkscape-stroke:none"
       d="M 59.080632,78.073271 C 52.752153,80.704364 48.171441,86.75674 47.611047,93.934835 h 2.012797 c 0.527812,-6.072712 4.245834,-11.204982 9.456788,-13.680819 z"
       id="path326" />
    <path
       style="color:#000000;fill:#ffffff;-inkscape-stroke:none"
       d="m 73.27408,64.537663 v 2.050521 c 12.352779,3.098959 21.613306,14.066276 22.260657,27.346651 h 2.004012 C 96.879827,79.571484 86.73015,67.692738 73.27408,64.537663 Z"
       id="path320" />
    <path
       style="color:#000000;fill:#ffffff;-inkscape-stroke:none"
       d="M 59.080632,64.523193 C 45.593833,67.656245 35.41436,79.549412 34.754468,93.934835 H 36.75848 C 37.406932,80.632438 46.697031,69.651589 59.080632,66.573714 Z"
       id="path318" />
    <path
       style="color:#000000;fill:#ffffff;-inkscape-stroke:none"
       d="M 59.080632,47.508211 C 36.665607,50.944709 19.460157,70.404435 19.277893,93.934835 h 1.49965 C 20.958835,71.211947 37.490059,52.445498 59.080632,49.026982 Z"
       id="path312" />
    <path
       style="color:#000000;fill:#ffffff;-inkscape-stroke:none"
       d="m 73.27408,47.507694 v 1.519288 c 21.590662,3.418091 38.12026,22.184615 38.30154,44.907853 h 1.50017 C 112.89353,70.404055 95.689316,50.943731 73.27408,47.507694 Z"
       id="path310" />
    <path
       style="color:#000000;fill:#ffffff;-inkscape-stroke:none"
       d="m 73.27408,35.703247 v 1.00614 c 28.28608,3.513762 50.20649,27.758353 50.39176,57.225448 h 0.99942 C 124.47949,63.930396 102.10853,39.22524 73.27408,35.703247 Z"
       id="path308" />
    <path
       style="color:#000000;fill:#ffffff;-inkscape-stroke:none"
       d="M 59.080632,35.703247 C 30.246417,39.225699 7.8741973,63.930749 7.6884196,93.934835 H 8.6878418 C 8.8731213,64.468117 30.794803,40.224148 59.080632,36.709904 Z"
       id="path306" />
    <path
       style="color:#000000;fill:#ffffff;stroke-width:1.12211;-inkscape-stroke:none"
       d="m 73.325217,14.886947 v 0.563048 c 39.396713,4.042734 70.135193,37.626393 70.135193,78.466119 0,3.874299 -0.28145,7.681856 -0.81587,11.406516 v 3.43338 c 0.90045,-4.80826 1.37718,-9.767609 1.37718,-14.839896 0,-41.140716 -30.99264,-74.982881 -70.696503,-79.029167 z"
       id="path304" />
    <path
       style="color:#000000;fill:#ffffff;stroke-width:1.12211;-inkscape-stroke:none"
       d="m 59.080632,14.886947 c -39.737309,4.013914 -70.767837,37.870874 -70.767837,79.035545 0,5.073309 0.476911,10.033638 1.377758,14.842798 v -3.43628 c -0.534442,-3.72467 -0.816449,-7.532219 -0.816449,-11.406518 0,-40.863703 30.776343,-74.462104 70.206528,-78.472497 z"
       id="path1462" />
  </g>
</svg>
