<?xml version="1.0" encoding="UTF-8" standalone="no"?>
<!-- Created with Inkscape (http://www.inkscape.org/) -->

<svg
   width="500"
   height="500"
   viewBox="0 0 132.29166 132.29167"
   version="1.1"
   id="svg1"
   inkscape:export-filename="sparkThing.png"
   inkscape:export-xdpi="42.759998"
   inkscape:export-ydpi="42.759998"
   inkscape:version="1.3 (0e150ed6c4, 2023-07-21)"
   sodipodi:docname="sparkThing.svg"
   xmlns:inkscape="http://www.inkscape.org/namespaces/inkscape"
   xmlns:sodipodi="http://sodipodi.sourceforge.net/DTD/sodipodi-0.dtd"
   xmlns:xlink="http://www.w3.org/1999/xlink"
   xmlns="http://www.w3.org/2000/svg"
   xmlns:svg="http://www.w3.org/2000/svg">
  <sodipodi:namedview
     id="namedview1"
     pagecolor="#000000"
     bordercolor="#000000"
     borderopacity="0.25"
     inkscape:showpageshadow="2"
     inkscape:pageopacity="0.0"
     inkscape:pagecheckerboard="0"
     inkscape:deskcolor="#3f3f3f"
     inkscape:document-units="mm"
     inkscape:zoom="1.4485269"
     inkscape:cx="249.56388"
     inkscape:cy="249.56388"
     inkscape:window-width="1920"
     inkscape:window-height="1009"
     inkscape:window-x="-8"
     inkscape:window-y="-8"
     inkscape:window-maximized="1"
     inkscape:current-layer="layer2" />
  <defs
     id="defs1">
    <linearGradient
       id="linearGradient3"
       inkscape:collect="always">
      <stop
         style="stop-color:#ffffff;stop-opacity:1;"
         offset="0"
         id="stop3" />
      <stop
         style="stop-color:#ffffff;stop-opacity:0;"
         offset="1"
         id="stop4" />
    </linearGradient>
    <linearGradient
       inkscape:collect="always"
       xlink:href="#linearGradient3"
       id="linearGradient4"
       x1="66.082932"
       y1="66.729675"
       x2="-7.8629307e-07"
       y2="66.173157"
       gradientUnits="userSpaceOnUse"
       spreadMethod="pad" />
  </defs>
  <g
     inkscape:groupmode="layer"
     id="layer2"
     inkscape:label="Layer 2">
    <g
       id="path3"
       transform="matrix(0.97644895,0,0,1,1.9528979,-0.5839207)">
      <path
         style="color:#000000;fill:url(#linearGradient4);stroke-linecap:round;stroke-linejoin:round;-inkscape-stroke:none"
         d="m -1.5725861e-6,27.634297 c 0,0 28.5447085725861,-13.963 43.4723285725861,-12.108467 33.785501,4.197343 88.693563,50.647326 88.693563,50.647326 0,0 -54.689792,47.813024 -88.693563,51.786964 C 28.426002,119.71855 0,104.71201 0,104.71201 Z"
         id="path6" />
      <path
         style="color:#000000;fill:#000000;stroke-linecap:round;stroke-linejoin:round;-inkscape-stroke:none"
         d="m 37.113281,13.5 c -6.969515,0.619418 -14.82087,3.029375 -21.65625,5.503906 -9.1138399,3.299375 -16.33593725,6.833985 -16.33593725,6.833985 A 2.0002,2.0002 0 0 0 -2,27.634766 v 77.078124 a 2.0002,2.0002 0 0 0 1.06640625,1.76758 c 0,0 7.19294655,3.80005 16.29492175,7.37695 9.101975,3.5769 20.024856,7.06206 28.34375,6.08985 17.797607,-2.07997 39.981749,-15.20823 58.005862,-27.72852 18.02411,-12.52029 31.77148,-24.539062 31.77148,-24.539063 a 2.0002,2.0002 0 0 0 -0.0254,-3.033203 c 0,0 -13.79904,-11.675202 -31.84765,-23.878906 C 83.560763,28.563875 61.375685,15.734626 43.71875,13.541016 41.661749,13.285464 39.436453,13.293527 37.113281,13.5 Z m 6.113281,4.009766 c 16.128533,2.003728 38.29082,14.499713 56.142579,26.570312 16.010409,10.82556 27.200759,20.085652 29.636719,22.117188 -2.40564,2.072896 -13.57419,11.62069 -29.576173,22.736328 C 81.607995,101.31328 59.446364,114.08064 43.240234,115.97461 36.512818,116.76083 25.698761,113.62152 16.826172,110.13477 8.9775187,107.0504 3.3722284,104.18075 2,103.4707 V 28.917969 c 1.4313246,-0.685385 7.0025292,-3.322872 14.818359,-6.152344 8.890401,-3.218486 19.708602,-6.088184 26.408203,-5.255859 z"
         id="path7" />
    </g>
  </g>
</svg>
