<?xml version="1.0" encoding="UTF-8" standalone="no"?>
<!-- Created with Inkscape (http://www.inkscape.org/) -->

<svg
   width="500"
   height="500"
   viewBox="0 0 132.29166 132.29167"
   version="1.1"
   id="svg5251"
   inkscape:export-filename="..\ryley is an artist yes\swarmIcon.png"
   inkscape:export-xdpi="96"
   inkscape:export-ydpi="96"
   inkscape:version="1.2.1 (9c6d41e410, 2022-07-14)"
   sodipodi:docname="swarmIcon.svg"
   xmlns:inkscape="http://www.inkscape.org/namespaces/inkscape"
   xmlns:sodipodi="http://sodipodi.sourceforge.net/DTD/sodipodi-0.dtd"
   xmlns="http://www.w3.org/2000/svg"
   xmlns:svg="http://www.w3.org/2000/svg">
  <sodipodi:namedview
     id="namedview5253"
     pagecolor="#505050"
     bordercolor="#eeeeee"
     borderopacity="1"
     inkscape:showpageshadow="0"
     inkscape:pageopacity="0"
     inkscape:pagecheckerboard="0"
     inkscape:deskcolor="#505050"
     inkscape:document-units="mm"
     showgrid="false"
     inkscape:zoom="1.1511698"
     inkscape:cx="144.63548"
     inkscape:cy="237.15006"
     inkscape:window-width="1920"
     inkscape:window-height="1017"
     inkscape:window-x="-8"
     inkscape:window-y="-8"
     inkscape:window-maximized="1"
     inkscape:current-layer="layer1" />
  <defs
     id="defs5248">
    <inkscape:path-effect
       effect="bspline"
       id="path-effect1239"
       is_visible="true"
       lpeversion="1"
       weight="33.333333"
       steps="2"
       helper_size="0"
       apply_no_weight="true"
       apply_with_weight="true"
       only_selected="false" />
    <inkscape:path-effect
       effect="bspline"
       id="path-effect1235"
       is_visible="true"
       lpeversion="1"
       weight="33.333333"
       steps="2"
       helper_size="0"
       apply_no_weight="true"
       apply_with_weight="true"
       only_selected="false" />
    <inkscape:path-effect
       effect="bspline"
       id="path-effect1231"
       is_visible="true"
       lpeversion="1"
       weight="33.333333"
       steps="2"
       helper_size="0"
       apply_no_weight="true"
       apply_with_weight="true"
       only_selected="false" />
    <inkscape:path-effect
       effect="bspline"
       id="path-effect1227"
       is_visible="true"
       lpeversion="1"
       weight="33.333333"
       steps="2"
       helper_size="0"
       apply_no_weight="true"
       apply_with_weight="true"
       only_selected="false" />
    <inkscape:path-effect
       effect="bspline"
       id="path-effect1223"
       is_visible="true"
       lpeversion="1"
       weight="33.333333"
       steps="2"
       helper_size="0"
       apply_no_weight="true"
       apply_with_weight="true"
       only_selected="false" />
    <inkscape:path-effect
       effect="bspline"
       id="path-effect1219"
       is_visible="true"
       lpeversion="1"
       weight="33.333333"
       steps="2"
       helper_size="0"
       apply_no_weight="true"
       apply_with_weight="true"
       only_selected="false" />
    <inkscape:path-effect
       effect="bspline"
       id="path-effect661"
       is_visible="true"
       lpeversion="1"
       weight="33.333333"
       steps="2"
       helper_size="0"
       apply_no_weight="true"
       apply_with_weight="true"
       only_selected="false" />
    <inkscape:path-effect
       effect="spiro"
       id="path-effect7392"
       is_visible="true"
       lpeversion="1" />
    <inkscape:path-effect
       effect="spiro"
       id="path-effect7388"
       is_visible="true"
       lpeversion="1" />
    <inkscape:path-effect
       effect="spiro"
       id="path-effect7384"
       is_visible="true"
       lpeversion="1" />
    <inkscape:path-effect
       effect="spiro"
       id="path-effect7380"
       is_visible="true"
       lpeversion="1" />
    <inkscape:path-effect
       effect="spiro"
       id="path-effect7376"
       is_visible="true"
       lpeversion="1" />
  </defs>
  <g
     inkscape:label="Layer 1"
     inkscape:groupmode="layer"
     id="layer1"
     transform="matrix(0,-1.2024372,1.2024372,0,-13.497398,158.49938)">
    <path
       style="color:#000000;fill:#ffffff;stroke-width:0.166329;-inkscape-stroke:none"
       d="m 32.082328,86.289348 -0.0159,0.04255 -0.0245,0.02063 z"
       id="path603" />
    <path
       style="color:#000000;fill:#ffffff;stroke-width:0.166329;-inkscape-stroke:none"
       d="m 56.039097,101.75226 c -0.01423,-0.28142 -0.07207,-0.5836 -0.169757,-0.90251 C 55.608828,99.99934 55.063548,99.02208 54.283081,97.974633 52.722146,95.87974 50.214118,93.502005 47.12493,91.330051 43.921018,89.077664 40.561586,87.392075 37.875118,86.68559 l -2.624999,-8.843685 -0.0881,0.232502 -2.570849,6.858176 c -4.024583,-2.592717 -7.655,-5.781562 -10.795674,-9.402809 v 4.056973 c 2.787882,2.869346 5.889975,5.433992 9.258838,7.610262 l -5.966415,5.100011 9.347799,-0.529469 c 1.58423,2.266713 4.276353,4.818792 7.433629,7.039105 3.089179,2.171964 6.173984,3.728504 8.673499,4.488454 1.249757,0.37998 2.353736,0.5618 3.24214,0.51916 0.888404,-0.0426 1.569562,-0.31272 1.945542,-0.8475 0.235004,-0.33423 0.332293,-0.74548 0.308571,-1.21451 z"
       id="path601" />
    <path
       style="color:#000000;fill:#ffffff;stroke-width:0.166329;-inkscape-stroke:none"
       d="m 63.345516,74.071155 c 0.0016,-0.432289 -0.0205,-0.893985 -0.06618,-1.381692 -0.243657,-2.6011 -1.149217,-5.936752 -2.658091,-9.39851 -1.564781,-3.589563 -3.559557,-6.776374 -5.486368,-8.777072 l 2.357256,-8.920184 -0.195113,0.152567 -5.760987,4.519828 C 47.163146,37.750113 38.386779,26.837555 27.066551,19.92174 25.360749,18.879622 23.599868,17.930194 21.795494,17.072404 v 2.777135 c 1.35277,0.679385 2.678679,1.412253 3.970161,2.201252 10.894949,6.656 19.361999,17.238901 23.508955,29.312489 l -7.979859,1.291011 8.256197,4.408091 c 0.173722,2.760335 1.148804,6.3415 2.691183,9.881135 1.508859,3.461765 3.334618,6.394373 5.074225,8.34344 0.869803,0.974534 1.717252,1.703408 2.498218,2.129052 0.780966,0.425641 1.503996,0.550448 2.103266,0.289231 0.59928,-0.26119 0.999014,-0.874836 1.218811,-1.736677 0.137371,-0.53865 0.206221,-1.176927 0.208865,-1.897408 z"
       id="path599" />
    <path
       style="color:#000000;fill:#ffffff;stroke-width:0.166329;-inkscape-stroke:none"
       d="m 86.744022,26.220792 -0.240239,0.0606 -7.273757,1.863027 C 79.48295,22.50799 79.459419,16.859144 79.159115,11.225034 h -2.499508 c 0.0012,0.02207 0.0031,0.04411 0.0043,0.06618 0.301403,5.61349 0.324174,11.242161 0.06833,16.857926 l -7.656247,-1.988948 5.781616,7.35928 c -0.952681,2.596455 -1.503934,6.266217 -1.517926,10.126961 -0.01331,3.776279 0.476087,7.197065 1.283275,9.681725 0.403595,1.242331 0.886457,2.250907 1.429825,2.955058 0.543371,0.704154 1.154725,1.109081 1.808448,1.11137 0.653721,0.0023 1.268296,-0.397312 1.816612,-1.097617 0.548319,-0.700307 1.036827,-1.706146 1.449165,-2.945603 0.824674,-2.478913 1.340033,-5.89556 1.353327,-9.671841 0.0136,-3.916325 -0.528132,-7.636482 -1.486124,-10.243857 z"
       id="path597" />
    <path
       style="color:#000000;fill:#ffffff;stroke-width:0.166329;-inkscape-stroke:none"
       d="m 127.11477,11.225034 h -2.96537 c -2.37615,3.723325 -4.69866,7.481152 -6.9639,11.272712 l -5.53321,-5.628621 1.17583,9.285053 c -2.15173,1.73767 -4.50949,4.601538 -6.50577,7.90637 -1.95217,3.23256 -3.29066,6.418624 -3.87518,8.964879 -0.29227,1.273128 -0.3969,2.386347 -0.29267,3.269645 0.10423,0.883298 0.42068,1.544863 0.98029,1.882797 0.55959,0.337958 1.29277,0.311195 2.12304,-0.0077 0.83028,-0.318944 1.76709,-0.930046 2.75779,-1.781372 1.98143,-1.702652 4.17885,-4.370819 6.13102,-7.603386 2.02419,-3.352172 3.47155,-6.820038 3.98993,-9.548929 l 8.64084,-3.234404 -0.23852,-0.0722 -7.21445,-2.145813 c 2.52676,-4.229474 5.12501,-8.415829 7.79033,-12.558995 z"
       id="path595" />
    <path
       style="color:#000000;fill:#ffffff;stroke-width:0.166329;-inkscape-stroke:none"
       d="m 131.8151,73.484957 c -1.28241,-1.867175 -2.93827,-3.472893 -4.85633,-4.686148 -2.5297,-1.600137 -5.48033,-2.50155 -8.47237,-2.588039 -2.99205,-0.08649 -5.98769,0.642474 -8.6056,2.09381 -2.41082,1.336525 -4.4716,3.271678 -5.96341,5.586933 l -4.245635,-6.526397 -0.69149,9.334046 c -2.454212,1.275369 -5.335581,3.614865 -7.948917,6.457206 -2.555638,2.78014 -4.499464,5.636217 -5.578338,8.01553 -0.539436,1.189655 -0.863932,2.259908 -0.937315,3.146302 -0.07338,0.886395 0.10663,1.596828 0.587917,2.039231 0.481269,0.442424 1.20468,0.561449 2.081777,0.413863 0.877097,-0.147585 1.914629,-0.559427 3.054763,-1.196893 2.280273,-1.274935 4.963955,-3.452288 7.519583,-6.232439 2.649885,-2.882957 4.758315,-5.995093 5.808695,-8.566487 l 9.11314,-1.453033 -0.21875,-0.117325 -6.69658,-3.564894 c 1.2803,-2.139651 3.14307,-3.943218 5.32349,-5.152011 2.21966,-1.230563 4.78757,-1.856424 7.32447,-1.783092 2.5369,0.07333 5.06612,0.846243 7.21101,2.202971 2.14489,1.35673 3.92487,3.309777 5.07809,5.570602 0.48008,0.941164 0.85069,1.939137 1.1118,2.964943 z"
       id="path7400" />
    <path
       style="fill:none;stroke:#ffffff;stroke-width:0.54056877;stroke-dasharray:none"
       d="M 61.253867,75.934643 C 66.683,91.038098 72.11209,106.14144 77.541132,121.24464"
       id="path659"
       inkscape:path-effect="#path-effect661"
       inkscape:original-d="m 61.253867,75.934643 c 5.428868,15.103551 10.857958,30.206887 16.287265,45.309997"
       sodipodi:nodetypes="cc" />
    <path
       style="fill:none;stroke:#ffffff;stroke-width:0.54056877;stroke-dasharray:none"
       d="m 55.730527,102.96677 c 4.753646,2.32298 9.507384,4.646 13.142572,7.6924 3.635188,3.0464 6.151603,6.81592 8.668033,10.58547"
       id="path1217"
       inkscape:path-effect="#path-effect1219"
       inkscape:original-d="m 55.730527,102.96677 c 4.753518,2.32324 9.507254,4.64627 14.26121,6.96907 2.516296,3.7699 5.032711,7.53942 7.549395,11.3088"
       sodipodi:nodetypes="ccc" />
    <path
       style="fill:none;stroke:#ffffff;stroke-width:0.54056877;stroke-dasharray:none"
       d="m 77.861228,57.394585 c 0.0086,13.731906 0.01717,27.463591 -0.03618,38.105345 -0.05335,10.64175 -0.168629,18.19326 -0.283906,25.74471"
       id="path1221"
       inkscape:path-effect="#path-effect1223"
       inkscape:original-d="m 77.861228,57.394585 c 0.0084,13.731906 0.01694,27.463591 0.02575,41.195057 -0.115503,7.552038 -0.230779,15.103548 -0.34584,22.654998" />
    <path
       style="fill:none;stroke:#ffffff;stroke-width:0.54056877;stroke-dasharray:none"
       d="M 103.13479,48.177869 C 97.232956,57.383496 91.331286,66.588867 87.065712,78.766811 82.800137,90.944756 80.170642,106.09467 77.541137,121.24464"
       id="path1229"
       inkscape:path-effect="#path-effect1231"
       inkscape:original-d="M 103.13479,48.177869 C 97.232899,57.38346 91.33123,66.588831 85.429781,75.793982 82.79996,90.944725 80.170465,106.09464 77.541137,121.24464" />
    <path
       style="fill:none;stroke:#ffffff;stroke-width:0.54056877;stroke-dasharray:none"
       d="m 85.171192,95.951952 c -0.603807,0.434155 -1.207353,0.868122 -2.47896,5.083688 -1.271607,4.21557 -3.211364,12.21234 -5.151095,20.209"
       id="path1237"
       inkscape:path-effect="#path-effect1239"
       inkscape:original-d="m 85.171192,95.951952 c -0.603778,0.434195 -1.207323,0.868162 -1.810673,1.301926 -1.940052,7.997292 -3.879809,15.994062 -5.819382,23.990762"
       sodipodi:nodetypes="ccc" />
  </g>
</svg>
